<svg width="65" height="70" viewBox="0 0 65 70" fill="none" xmlns="http://www.w3.org/2000/svg">
<path d="M29.9099 7.15539e-05C20.8866 -0.00697035 12.2198 3.52196 5.76794 9.83013C9.52122 8.92053 13.432 8.87479 17.2055 9.69637C20.979 10.5179 24.5168 12.1854 27.5522 14.573C30.5876 16.9606 33.0414 20.0062 34.7287 23.48C36.4159 26.9539 37.2926 30.7654 37.2926 34.6273C37.2927 38.4892 36.416 42.3008 34.7288 45.7746C33.0416 49.2485 30.5878 52.294 27.5524 54.6817C24.517 57.0694 20.9793 58.7368 17.2057 59.5584C13.4322 60.38 9.52144 60.3343 5.76816 59.4248C9.8336 63.3828 14.8095 66.2809 20.2581 67.864C25.7067 69.4472 31.4609 69.6669 37.0143 68.5038C42.5678 67.3407 47.7502 64.8305 52.1057 61.1941C56.4611 57.5576 59.8559 52.9064 61.9915 47.6497C64.1271 42.393 64.9379 36.692 64.3526 31.0483C63.7673 25.4046 61.8038 19.9914 58.635 15.2848C55.4661 10.5782 51.189 6.72263 46.18 4.05735C41.1711 1.39206 35.5838 -0.00123279 29.9099 7.15539e-05Z" fill="black"/>
<path d="M8.03997 38.2724L11.685 45.5624L15.3299 38.2724L22.6199 34.6274L15.3299 30.9824L11.685 23.6924L8.03997 30.9824L0.75 34.6274L8.03997 38.2724Z" fill="black"/>
</svg>
