<svg aria-hidden="true" style="position: absolute; width: 0; height: 0; overflow: hidden;" version="1.1" xmlns="http://www.w3.org/2000/svg" xmlns:xlink="http://www.w3.org/1999/xlink">
<defs>
<symbol id="icon-for-button" viewBox="0 0 32 32">
<path fill="#181818" style="fill: #181818" d="M15.818 14.54l-12.127 12.127-3.691-3.691 15.818-15.818 15.818 15.818-3.691 3.691-12.127-12.127z"></path>
</symbol>
<symbol id="icon-gradient-arrow" viewBox="0 0 32 32">
<path d="M31.741 4.992h0v-4.8h-31.406v4.8h23.657l-23.993 23.46 3.432 3.356 23.509-22.987v22.987h4.8v-26.816z"></path>
</symbol>
<symbol id="icon-green-arrow" viewBox="0 0 32 32">
<path fill="#6ad8a5" style="fill: var(--color1, #6ad8a5)" d="M31.741 4.992h0v-4.8h-31.406v4.8h23.657l-23.993 23.46 3.432 3.356 23.509-22.987v22.987h4.8v-26.816z"></path>
</symbol>
<symbol id="icon-mail" viewBox="0 0 32 32">
<path d="M2.4 4.8c-0.469 0-0.906 0.132-1.275 0.362l13.7 11.925c0.727 0.632 1.597 0.632 2.325 0l13.725-11.925c-0.369-0.231-0.806-0.362-1.275-0.362h-27.2zM0.138 6.425c-0.083 0.244-0.138 0.502-0.138 0.775v17.6c0 1.33 1.070 2.4 2.4 2.4h27.2c1.33 0 2.4-1.070 2.4-2.4v-17.6c0-0.273-0.054-0.531-0.138-0.775l-13.662 11.863c-1.274 1.106-3.151 1.108-4.425 0l-13.637-11.863z"></path>
</symbol>
<symbol id="icon-sun" viewBox="0 0 32 32">
<path d="M32 17.032c0 0-1.548 1.032-3.097-2.065-0.318-0.662-0.766-1.253-1.318-1.738s-1.195-0.853-1.893-1.083l0.161-0.161c0.85-0.85 1.49-1.886 1.87-3.026s0.489-2.353 0.32-3.543c0 0-0.365 1.825-3.65 0.73-0.693-0.243-1.428-0.344-2.161-0.297s-1.449 0.242-2.104 0.572v-0.228c0-1.202-0.28-2.387-0.817-3.462s-1.318-2.010-2.279-2.731c0 0 1.032 1.548-2.065 3.097-0.662 0.318-1.253 0.766-1.738 1.318s-0.853 1.195-1.083 1.893l-0.161-0.161c-0.85-0.85-1.886-1.49-3.026-1.87s-2.353-0.489-3.543-0.319c0 0 1.825 0.365 0.73 3.65-0.243 0.693-0.344 1.428-0.297 2.161s0.242 1.449 0.572 2.104h-0.228c-1.202 0-2.387 0.28-3.462 0.817s-2.010 1.318-2.731 2.279c0 0 1.548-1.032 3.097 2.065 0.318 0.662 0.766 1.253 1.318 1.738s1.195 0.853 1.893 1.084l-0.161 0.161c-0.85 0.85-1.49 1.886-1.87 3.026s-0.489 2.353-0.32 3.543c0 0 0.365-1.825 3.65-0.73 0.693 0.243 1.428 0.344 2.161 0.297s1.449-0.242 2.104-0.572v0.228c0 1.202 0.28 2.387 0.817 3.462s1.318 2.010 2.279 2.731c0 0-1.032-1.548 2.065-3.097 0.662-0.318 1.253-0.766 1.738-1.318s0.853-1.195 1.083-1.893l0.161 0.161c0.85 0.85 1.886 1.49 3.026 1.87s2.353 0.489 3.543 0.32c0 0-1.825-0.365-0.73-3.65 0.243-0.693 0.344-1.428 0.297-2.161s-0.242-1.449-0.572-2.104h0.228c1.202 0 2.387-0.28 3.462-0.817s2.010-1.318 2.731-2.279zM16 25.29c-1.837 0-3.634-0.545-5.161-1.566s-2.719-2.472-3.422-4.169c-0.703-1.698-0.887-3.566-0.529-5.368s1.243-3.458 2.543-4.757 2.955-2.184 4.757-2.543c1.802-0.358 3.67-0.174 5.368 0.529s3.148 1.894 4.169 3.422c1.021 1.528 1.566 3.324 1.566 5.161-0.003 2.463-0.982 4.825-2.724 6.566s-4.103 2.721-6.566 2.724z"></path>
<path d="M16 24.258c4.561 0 8.258-3.697 8.258-8.258s-3.697-8.258-8.258-8.258c-4.561 0-8.258 3.697-8.258 8.258s3.697 8.258 8.258 8.258z"></path>
</symbol>
<symbol id="icon-moon" viewBox="0 0 30 32">
<path d="M13.673 0c-4.125-0.003-8.087 1.61-11.036 4.494 1.716-0.416 3.504-0.437 5.229-0.061s3.342 1.138 4.73 2.229c1.388 1.091 2.509 2.484 3.281 4.072s1.172 3.33 1.172 5.096c0 1.765-0.401 3.508-1.172 5.096s-1.893 2.98-3.281 4.072-3.005 1.854-4.73 2.229c-1.725 0.376-3.513 0.355-5.229-0.061 1.859 1.809 4.133 3.134 6.624 3.858s5.121 0.824 7.66 0.292c2.539-0.532 4.908-1.679 6.899-3.342s3.543-3.789 4.519-6.192 1.347-5.009 1.079-7.589c-0.268-2.58-1.165-5.055-2.614-7.206s-3.404-3.914-5.694-5.133c-2.29-1.218-4.844-1.855-7.438-1.855z"></path>
<path d="M3.675 17.496l1.666 3.333 1.666-3.333 3.333-1.666-3.333-1.666-1.666-3.333-1.666 3.333-3.333 1.666 3.333 1.666z"></path>
</symbol>
</defs>
</svg>
