<svg width="80" height="56" viewBox="0 0 80 56" fill="none" xmlns="http://www.w3.org/2000/svg">
<path d="M6 0C4.82701 0 3.73499 0.3289 2.8125 0.90625L37.0625 30.7188C38.8797 32.2995 41.0547 32.2994 42.875 30.7188L77.1875 0.90625C76.265 0.32891 75.173 0 74 0H6ZM0.34375 4.0625C0.1359 4.67252 0 5.31789 0 6V50C0 53.324 2.67599 56 6 56H74C77.324 56 80 53.324 80 50V6C80 5.31789 79.8641 4.67251 79.6562 4.0625L45.5 33.7188C42.3154 36.4842 37.6214 36.4885 34.4375 33.7188L0.34375 4.0625Z" fill="black"/>
</svg>
