<svg width="101" height="101" viewBox="0 0 101 101" fill="none" xmlns="http://www.w3.org/2000/svg">
<path d="M101 53.7581C101 53.7581 96.1129 57.0161 91.2258 47.2419C90.222 45.1528 88.8072 43.2876 87.066 41.7577C85.3249 40.2279 83.2932 39.0648 81.0923 38.338L81.6013 37.8291C84.2837 35.1467 86.3047 31.8766 87.5043 28.2778C88.7039 24.679 89.0492 20.8503 88.5127 17.0949C88.5127 17.0949 87.3608 22.8544 76.9937 19.3986C74.8066 18.6313 72.4873 18.3128 70.1744 18.4622C67.8615 18.6116 65.6024 19.2258 63.5323 20.2681V19.5484C63.5323 15.7549 62.649 12.0135 60.9525 8.62051C59.256 5.22751 56.7929 2.27609 53.7581 0C53.7581 0 57.0161 4.8871 47.2419 9.77419C45.1529 10.778 43.2876 12.1928 41.7578 13.9339C40.2279 15.675 39.0648 17.7068 38.338 19.9076L37.8291 19.3986C35.1467 16.7162 31.8766 14.6952 28.2778 13.4956C24.6789 12.296 20.8503 11.9508 17.0949 12.4873C17.0949 12.4873 22.8544 13.6392 19.3987 24.0062C18.6314 26.1932 18.3129 28.5126 18.4623 30.8255C18.6117 33.1385 19.2259 35.3976 20.2682 37.4677H19.5484C15.7549 37.4677 12.0135 38.351 8.62051 40.0475C5.22751 41.744 2.27609 44.2071 0 47.2419C0 47.2419 4.8871 43.9839 9.77419 53.7581C10.778 55.8471 12.1928 57.7124 13.9339 59.2422C15.675 60.7721 17.7068 61.9352 19.9076 62.662L19.3987 63.1708C16.7163 65.8533 14.6953 69.1234 13.4957 72.7222C12.2961 76.3211 11.9508 80.1498 12.4873 83.9052C12.4873 83.9052 13.6392 78.1456 24.0063 81.6013C26.1934 82.3687 28.5127 82.6872 30.8256 82.5378C33.1385 82.3884 35.3976 81.7742 37.4677 80.7319V81.4516C37.4677 85.2451 38.351 88.9865 40.0475 92.3795C41.744 95.7725 44.2071 98.7239 47.2419 101C47.2419 101 43.9839 96.1129 53.7581 91.2258C55.8472 90.222 57.7124 88.8072 59.2423 87.066C60.7721 85.3249 61.9352 83.2932 62.662 81.0923L63.1709 81.6013C65.8533 84.2837 69.1234 86.3047 72.7222 87.5043C76.3211 88.7039 80.1497 89.0492 83.9051 88.5127C83.9051 88.5127 78.1456 87.3607 81.6013 76.9937C82.3686 74.8066 82.6872 72.4873 82.5378 70.1744C82.3884 67.8615 81.7742 65.6024 80.7319 63.5323H81.4516C85.2451 63.5323 88.9865 62.649 92.3795 60.9525C95.7725 59.256 98.7239 56.7929 101 53.7581ZM50.5 79.8226C44.7005 79.8226 39.0313 78.1028 34.2092 74.8808C29.3872 71.6588 25.6288 67.0793 23.4095 61.7213C21.1901 56.3633 20.6094 50.4675 21.7408 44.7794C22.8723 39.0914 25.665 33.8666 29.7658 29.7658C33.8666 25.665 39.0914 22.8723 44.7794 21.7408C50.4675 20.6094 56.3633 21.1901 61.7213 23.4095C67.0793 25.6288 71.6588 29.3872 74.8808 34.2092C78.1028 39.0313 79.8226 44.7005 79.8226 50.5C79.8138 58.2741 76.7217 65.7274 71.2245 71.2245C65.7274 76.7217 58.2741 79.8138 50.5 79.8226Z" fill="black"/>
<path d="M50.5 76.5645C64.895 76.5645 76.5645 64.895 76.5645 50.5C76.5645 36.105 64.895 24.4355 50.5 24.4355C36.105 24.4355 24.4355 36.105 24.4355 50.5C24.4355 64.895 36.105 76.5645 50.5 76.5645Z" fill="black"/>
</svg>
